<?xml version="1.0" encoding="utf-8"?>
<!-- Generator: Adobe Illustrator 25.0.0, SVG Export Plug-In . SVG Version: 6.00 Build 0)  -->
<svg version="1.1" id="fassi" xmlns="http://www.w3.org/2000/svg" xmlns:xlink="http://www.w3.org/1999/xlink" x="0px" y="0px"
	 viewBox="0 0 140 80" width="140px" height="80px" enable-background="new 0 0 140 80" xml:space="preserve">
<path id="Path_17_2_" fill="#D9000D" d="M126.9,50.3c0,4-2.7,5.8-5.9,5.8H19c-3.1,0-5.8-1.8-5.8-5.8V29.6c0-4,2.6-5.8,5.8-5.8h102
	c3.1,0,5.8,1.8,5.8,5.8V50.3z"/>
<path fill="#FFFFFF" d="M55.8,35.1h-7.1c-0.4,0-0.7,0.3-0.7,0.7v1.5c0,0.4,0.3,0.7,0.7,0.7h7.1c0.4,0,0.7-0.3,0.7-0.7v-1.5
	C56.5,35.3,56.2,35,55.8,35.1z M120.7,26.9H19.5c-2.6,0-3.1,0.8-3.1,3.2v19.8c0,2.4,0.4,3.2,3.1,3.2h101.2c2.6,0,3.1-0.8,3.1-3.2
	V30.1C123.8,27.7,123.3,26.9,120.7,26.9z M38.8,35.1H29c-0.4,0-0.7,0.3-0.7,0.7v1.6c0,0.4,0.3,0.7,0.7,0.7h6.9c1.1,0,2,0.9,2,2
	c0,1.1-0.9,2-2,2h-7.6v5c0,1.1-0.9,2-2,2c-1.1-0.1-2-1-2-2.1V35.4c0-2.5,2-4.4,4.4-4.4h10.2c1.2,0,2.1,0.9,2,2.1
	C40.8,34.2,40,35.1,38.8,35.1z M60.5,47c0,1.1-0.9,2-2,2c-1.1,0-2-0.9-2-2v-5H48v5c0,1.1-0.9,2-2,2c-1.1,0-2-0.9-2-2V35.4
	c0-2.4,2-4.4,4.4-4.4h7.8c2.4,0,4.4,2,4.4,4.4V47z M71.8,38h5.7c3.1,0,5.5,2.5,5.5,5.6c-0.1,3-2.5,5.5-5.5,5.5h-9.1
	c-1.1-0.1-2-1-2-2.1c0-1.1,0.9-2,2-2h9.1c0.8,0,1.5-0.7,1.5-1.5S78.4,42,77.5,42h-5.7c-3,0-5.5-2.4-5.5-5.5c0-3,2.4-5.5,5.5-5.5H81
	c1.1,0,2,0.9,2,2c0,1.1-0.9,2-2,2H72c-0.8,0-1.6,0.7-1.6,1.5S71,38,71.8,38z M100.2,49.1h-9.1c-1.1-0.1-2-1-2-2.1c0-1.1,0.9-2,2-2
	h9.1c0.8,0,1.5-0.7,1.5-1.5S101,42,100.2,42h-5.8c-3,0-5.5-2.4-5.5-5.5c0-3,2.4-5.5,5.5-5.5h9.2c1.1,0,2,0.9,2,2c0,1.1-0.9,2-2,2
	h-9.1c-0.8,0-1.5,0.7-1.5,1.5s0.7,1.5,1.5,1.5h5.7c3.1,0,5.5,2.5,5.5,5.6C105.7,46.6,103.2,49.1,100.2,49.1z M115.7,47.1
	c0,1.1-0.9,2-2,2c-1.1,0-2-0.9-2-2V33c0-0.1,0-0.1,0-0.2c0.1-1.1,1-2,2.1-1.9c1.1,0.1,2,1,1.9,2.1V47.1z"/>
</svg>
