<?xml version="1.0" encoding="UTF-8"?><svg id="b" xmlns="http://www.w3.org/2000/svg" viewBox="0 0 1578 267.8"><defs><style>.d{fill:#fff;stroke-width:0px;}</style></defs><g id="c"><path class="d" d="m488.7,104v59.1H58.5v45.6h430v58.2H0V.5h488.6v57.8H58.6v45.6h430.1Z"/><path class="d" d="m1578,0v58.7h-11.1c-130.8,0-261.6,0-392.4,0-20.2,0-27.2,7-27.2,27.1,0,32.7,0,65.4,0,98.1,0,17.8,7.4,25.2,25.1,25.2,131.4,0,262.8,0,394.2,0h11.2v58.7h-9.7c-141.5,0-283,.2-424.5-.2-31.9,0-54.6-23.2-54.9-54.7-.6-51.9-.3-103.9-.1-155.8,0-24.1,15.6-47.6,40-53.9,7.2-1.9,14.8-3,22.2-3C1291.2,0,1431.5,0,1571.7,0h6.3Z"/><path class="d" d="m544,.2h58.7v8.7c0,23.5.3,47.1-.1,70.6-.3,13.7,9,25.4,24.8,25.3,106.9-.5,213.9-.3,320.8-.3,18.1,0,26.8-8.9,26.8-27.4,0-25.3,0-50.6,0-76.6h58.7v10c0,31.2.1,62.3,0,93.5-.2,36.7-23.7,58.6-59.3,59-48.6.6-97.2.1-145.7.1h-11v104h-58.8v-104h-10.3c-48.3,0-96.6,0-144.8,0-13.1,0-25.4-3.1-36.4-10.6-14.5-9.8-22.2-24.4-22.8-40.7-1.3-36.9-.4-73.8-.4-111.6Z"/><path class="d" d="m723.8,219.3c0,9.9-5.6,15.5-15.6,15.5s-15.6-5.5-15.6-15.5c0-11.8,5.1-17.6,15.6-17.6s15.6,5.7,15.6,17.6Z"/><path class="d" d="m887,218.7c0,10.5-5.5,16.2-15.9,16-9.6-.1-15.2-5.6-15.3-14.9,0-12.5,5-18.3,15.9-18.1,10.1.1,15.2,5.8,15.3,17Z"/></g></svg>